<svg xmlns="http://www.w3.org/2000/svg" width="127.601" height="72.829" viewBox="0 0 127.601 72.829"><path d="M32.466-90.816a2.07,2.07,0,0,1,1.5.567,1.952,1.952,0,0,1,.589,1.473V-76.22a2.15,2.15,0,0,1-.567,1.519,1.915,1.915,0,0,1-1.473.612h-.725a1.766,1.766,0,0,1-1.813-1.5l-.907-2.856a7.489,7.489,0,0,1-2.992,3.332,8.522,8.522,0,0,1-4.533,1.247,11.5,11.5,0,0,1-6.754-1.994,12.645,12.645,0,0,1-4.4-5.734A23.049,23.049,0,0,1,8.85-90.408,20.729,20.729,0,0,1,10.5-99.066a12.245,12.245,0,0,1,4.76-5.53,13.9,13.9,0,0,1,7.411-1.9,14.958,14.958,0,0,1,5.689,1.043,9.954,9.954,0,0,1,4.034,2.833,6.154,6.154,0,0,1,1.473,4.012,4.19,4.19,0,0,1-1.065,2.992,3.649,3.649,0,0,1-2.788,1.133,3.942,3.942,0,0,1-2.765-.952,3.217,3.217,0,0,1-1.043-2.493,3.739,3.739,0,0,1,.544-2.04,5.781,5.781,0,0,0-3.989-1.224,6.4,6.4,0,0,0-5.621,2.584q-1.813,2.584-1.813,8.069,0,11.378,7.162,11.378a5.738,5.738,0,0,0,4.1-1.519,5.149,5.149,0,0,0,1.609-3.921v-.861H22.9a2.027,2.027,0,0,1-1.5-.589,1.971,1.971,0,0,1-.589-1.451v-1.269a1.971,1.971,0,0,1,.589-1.451,2.027,2.027,0,0,1,1.5-.589Zm35.765,11.2q1.949,0,1.949,1.768v1.768q0,1.768-1.949,1.768h-8.2a2.2,2.2,0,0,1-1.405-.431,1.6,1.6,0,0,1-.544-1.337v-1.768a1.6,1.6,0,0,1,.544-1.337,2.2,2.2,0,0,1,1.405-.431h.861L59.256-84.2H49.329L47.7-79.62h.816a2.271,2.271,0,0,1,1.451.431,1.6,1.6,0,0,1,.544,1.337v1.768a1.6,1.6,0,0,1-.544,1.337,2.271,2.271,0,0,1-1.451.431H41.306a2.2,2.2,0,0,1-1.405-.431,1.6,1.6,0,0,1-.544-1.337v-1.768a1.6,1.6,0,0,1,.544-1.337,2.2,2.2,0,0,1,1.405-.431h.861l9.111-25.022a1.948,1.948,0,0,1,.771-1.043,2.157,2.157,0,0,1,1.224-.363h2.946a2.157,2.157,0,0,1,1.224.363,1.948,1.948,0,0,1,.771,1.043l9.2,25.022ZM57.352-89.547l-3.082-8.7-3.082,8.7Zm29.872-16.5q7.253,0,11.242,3.9t3.989,11.06a19.5,19.5,0,0,1-1.881,8.749,14.062,14.062,0,0,1-5.326,5.915,14.806,14.806,0,0,1-7.887,2.108H76.209a2.271,2.271,0,0,1-1.451-.431,1.6,1.6,0,0,1-.544-1.337v-1.768a1.6,1.6,0,0,1,.544-1.337,2.271,2.271,0,0,1,1.451-.431h.816v-21.123h-.816a2.271,2.271,0,0,1-1.451-.431,1.6,1.6,0,0,1-.544-1.337v-1.768a1.6,1.6,0,0,1,.544-1.337,2.2,2.2,0,0,1,1.405-.431ZM87.043-79.62a7.945,7.945,0,0,0,6.573-2.946q2.357-2.946,2.357-8.25,0-4.986-2.221-7.457T87-100.743H83.371V-79.62Zm34.677,5.757a14.564,14.564,0,0,1-7.593-1.9,12.379,12.379,0,0,1-4.9-5.485,19.711,19.711,0,0,1-1.7-8.522,20.269,20.269,0,0,1,1.813-8.884,13.474,13.474,0,0,1,5.145-5.8,14.764,14.764,0,0,1,7.865-2.04,14.352,14.352,0,0,1,7.525,1.9,12.422,12.422,0,0,1,4.873,5.485,19.711,19.711,0,0,1,1.7,8.522,20.525,20.525,0,0,1-1.79,8.862,13.308,13.308,0,0,1-5.122,5.825A14.676,14.676,0,0,1,121.719-73.863Zm.045-5.3a7.078,7.078,0,0,0,6.119-2.878q2.085-2.878,2.085-8.545,0-10.607-7.706-10.607a7.078,7.078,0,0,0-6.119,2.878q-2.085,2.878-2.085,8.454Q114.059-79.167,121.765-79.167Zm-89.3,28.542a2.07,2.07,0,0,1,1.5.567,1.952,1.952,0,0,1,.589,1.473v12.556a2.15,2.15,0,0,1-.567,1.519,1.915,1.915,0,0,1-1.473.612h-.725a1.766,1.766,0,0,1-1.813-1.5l-.907-2.856a7.489,7.489,0,0,1-2.992,3.332,8.522,8.522,0,0,1-4.533,1.247,11.5,11.5,0,0,1-6.754-1.994,12.645,12.645,0,0,1-4.4-5.734A23.049,23.049,0,0,1,8.85-50.216,20.729,20.729,0,0,1,10.5-58.874a12.245,12.245,0,0,1,4.76-5.53,13.9,13.9,0,0,1,7.411-1.9,14.958,14.958,0,0,1,5.689,1.043A9.955,9.955,0,0,1,32.4-62.433a6.154,6.154,0,0,1,1.473,4.012,4.19,4.19,0,0,1-1.065,2.992A3.649,3.649,0,0,1,30.019-54.3a3.942,3.942,0,0,1-2.765-.952,3.217,3.217,0,0,1-1.043-2.493,3.739,3.739,0,0,1,.544-2.04A5.782,5.782,0,0,0,22.766-61a6.4,6.4,0,0,0-5.621,2.584q-1.813,2.584-1.813,8.069,0,11.378,7.162,11.378a5.738,5.738,0,0,0,4.1-1.519,5.149,5.149,0,0,0,1.609-3.921v-.861H22.9a2.027,2.027,0,0,1-1.5-.589,1.971,1.971,0,0,1-.589-1.451v-1.269a1.971,1.971,0,0,1,.589-1.451,2.027,2.027,0,0,1,1.5-.589Zm35.765,11.2q1.949,0,1.949,1.768v1.768q0,1.768-1.949,1.768h-8.2a2.2,2.2,0,0,1-1.405-.431,1.6,1.6,0,0,1-.544-1.337V-37.66A1.6,1.6,0,0,1,58.621-39a2.2,2.2,0,0,1,1.405-.431h.861l-1.632-4.578H49.329L47.7-39.428h.816A2.271,2.271,0,0,1,49.963-39a1.6,1.6,0,0,1,.544,1.337v1.768a1.6,1.6,0,0,1-.544,1.337,2.271,2.271,0,0,1-1.451.431H41.306a2.2,2.2,0,0,1-1.405-.431,1.6,1.6,0,0,1-.544-1.337V-37.66A1.6,1.6,0,0,1,39.9-39a2.2,2.2,0,0,1,1.405-.431h.861L51.278-64.45a1.948,1.948,0,0,1,.771-1.043,2.157,2.157,0,0,1,1.224-.363h2.946a2.157,2.157,0,0,1,1.224.363,1.948,1.948,0,0,1,.771,1.043l9.2,25.022ZM57.352-49.355l-3.082-8.7-3.082,8.7Zm29.872-16.5q7.253,0,11.242,3.9t3.989,11.06a19.5,19.5,0,0,1-1.881,8.749,14.062,14.062,0,0,1-5.326,5.915,14.806,14.806,0,0,1-7.887,2.108H76.209a2.271,2.271,0,0,1-1.451-.431,1.6,1.6,0,0,1-.544-1.337V-37.66A1.6,1.6,0,0,1,74.758-39a2.271,2.271,0,0,1,1.451-.431h.816V-60.551h-.816a2.271,2.271,0,0,1-1.451-.431,1.6,1.6,0,0,1-.544-1.337v-1.768a1.6,1.6,0,0,1,.544-1.337,2.2,2.2,0,0,1,1.405-.431Zm-.181,26.427a7.945,7.945,0,0,0,6.573-2.946q2.357-2.946,2.357-8.25,0-4.986-2.221-7.457T87-60.551H83.371v21.123Zm34.677,5.757a14.564,14.564,0,0,1-7.593-1.9,12.379,12.379,0,0,1-4.9-5.485,19.711,19.711,0,0,1-1.7-8.522,20.269,20.269,0,0,1,1.813-8.884,13.474,13.474,0,0,1,5.145-5.8,14.764,14.764,0,0,1,7.865-2.04,14.352,14.352,0,0,1,7.525,1.9,12.422,12.422,0,0,1,4.873,5.485,19.711,19.711,0,0,1,1.7,8.522,20.525,20.525,0,0,1-1.79,8.862,13.308,13.308,0,0,1-5.122,5.825A14.676,14.676,0,0,1,121.719-33.671Zm.045-5.3a7.078,7.078,0,0,0,6.119-2.878q2.085-2.878,2.085-8.545Q129.969-61,122.263-61a7.078,7.078,0,0,0-6.119,2.878q-2.085,2.878-2.085,8.454Q114.059-38.975,121.765-38.975Z" transform="translate(-8.85 106.5)" fill="#fff"/></svg>